<svg id="Layer_1" data-name="Layer 1" xmlns="http://www.w3.org/2000/svg" viewBox="0 0 500 500"><defs><style>.cls-1{fill:#f2f2f2;}.cls-2{fill:#24285b;}.cls-3{fill:#f0457d;}.cls-4{fill:#0f143a;opacity:0.15;}</style></defs><title>ECommerce</title><path class="cls-1" d="M255,115.12,115,199.63h0V393.44a14.86,14.86,0,0,0,14.86,14.86H377.74a14.86,14.86,0,0,0,14.85-14.86V199.63Z"/><path class="cls-2" d="M255.54,303.48h0a47.87,47.87,0,0,1,47.87,47.87V408.3a0,0,0,0,1,0,0H207.66a0,0,0,0,1,0,0V351.36A47.87,47.87,0,0,1,255.54,303.48Z"/><circle class="cls-3" cx="255.54" cy="213.28" r="21.21"/><rect class="cls-1" x="133.73" y="102.24" width="52.58" height="77.69"/><path class="cls-4" d="M133.73,141.09c0,.95,52.58-30.2,52.58-30.2v37.28L133.73,165Z"/><path class="cls-3" d="M93.63,230.64l-16-26.54a4.49,4.49,0,0,1,1.53-6.17L252.71,93.12a4.5,4.5,0,0,1,4.68,0l166.4,102.18a4.49,4.49,0,0,1,1.48,6.18l-16.22,26.43a4.5,4.5,0,0,1-6.19,1.47L257.21,140a4.48,4.48,0,0,0-4.67,0L99.8,232.17A4.49,4.49,0,0,1,93.63,230.64Z"/><rect class="cls-3" x="123.97" y="91.7" width="72.11" height="23.42" rx="4.27"/></svg>